<svg xmlns="http://www.w3.org/2000/svg" viewBox="0 0 1024 1024">
  <title>icon-play</title>
  <path d="M214,14.44c38.39,24.79,73.51,54,110.14,81.16,73.78,54.7,147.2,109.94,220.63,165Q677.46,360.13,810,459.81c23.33,17.52,46.78,34.91,71,52.95-52,38.87-103.1,77.13-154.29,115.33L254.1,980.6c-13.53,10.11-24.25,24.28-41.53,29-11.49-25.79-15.84-53.67-22.31-80.81a1732.45,1732.45,0,0,1-44-297.59c-5.25-85.6-3.43-171.24,1.74-257,5-83.81,19.85-165.92,35.32-247.91,7.1-37.69,14.62-76.18,30.75-111.8"/>
</svg>
