<?xml version="1.0" encoding="utf-8"?>
<!-- Generator: Adobe Illustrator 23.0.4, SVG Export Plug-In . SVG Version: 6.00 Build 0)  -->
<svg version="1.1" id="Calque_1" xmlns="http://www.w3.org/2000/svg" xmlns:xlink="http://www.w3.org/1999/xlink" x="0px" y="0px"
	 viewBox="0 0 115 114.5574875" enable-background="new 0 0 115 114.5574875" xml:space="preserve">
<path d="M66.1822662,0.0225964c-6.5180664,0.8134709-13.0486984,1.5340455-19.5441628,2.4881163
	c-4.2022095,0.6101034-8.334095,1.6846881-12.5363007,2.2847486c-2.0697098,0.2962642-3.6345482,1.2553568-4.9984455,2.6061196
	C24.0094643,12.4456024,18.4157276,16.97995,13.62325,22.3453426c-2.1350145,2.3927097-4.4282703,4.6448193-6.6486845,6.9571857
	c-0.7662811,0.9456482-1.2842946,2.0675335-1.5070686,3.2639236C3.3509026,42.2862587,1.6931267,52.0755272,0.49417,61.9342613
	c-0.1959189,1.6143837-0.9168001,3.296566-0.1456833,4.9285316c4.08918,8.6845551,7.98244,17.4695435,12.7673826,25.8101196
	c1.5196276,2.6513138,2.5293636,5.7269363,5.6414604,7.0299988c2.5645275,1.0795975,4.8552742,2.6387558,7.2515125,3.9970551
	c6.9224663,3.934288,14.1538849,7.2182999,21.3652077,10.5449905c0.5134468,0.2561111,1.0900955,0.358139,1.6602898,0.2937622
	c11.2125893-1.1674805,22.3548508-2.8044739,33.4066849-5.0465393c0.6308136-0.1162567,1.2154388-0.4097443,1.6854019-0.8461075
	c2.6097488-2.3650894,5.2747421-4.6623917,7.8694077-7.0550995c2.3443298-2.1759491,4.6459579-4.4046326,6.9048843-6.6860352
	c2.5243378-2.5559006,4.9482117-5.2047043,7.4449234-7.7832031c1.622612-1.6796722,2.908638-3.4120636,3.4109955-5.8574905
	c1.9516525-9.4754257,3.6069183-18.9985657,4.7723846-28.5970192c0.200943-1.6620903,0.9067535-3.3543129,0.0753479-5.1017685
	c-4.0188446-8.4385071-7.8066101-16.987484-12.3981552-25.1548328c-2.0094223-3.5677223-3.7676697-7.1078262-7.992485-8.6318302
	c-2.3434906-0.8461094-4.4785004-2.277216-6.5758438-3.5878086c-5.7971878-3.6179366-12.2323761-5.9152389-18.2003632-9.1590796
	C68.5785065,0.5824853,67.6340714,0,66.5540085,0c-0.1234131,0.0001715-0.2467117,0.0077171-0.3692322,0.0225964"/>
</svg>
