<svg xmlns="http://www.w3.org/2000/svg" viewBox="0 0 95.83 46.28">
  <g fill="#ebdeba">
    <path d="M25.25 42.1v4.16H0v-8.13l21.46-19.99h-21v-4.15h24.33v8.12L3.32 42.1h21.93zM29.87 13.94h5.77v32.31h-5.77zM60.38 38.94H46.85l-2.17 7.34h-5.81L48.51 14h10.85l9.14 32.28h-6zM48 35.06h11.27l-5.54-19.43z"/>
    <path d="M94.74 16.75a.28.28 0 0 1-.13-.11l-.93-1-2.17-2.22c-.17-.18-.33-.36-.52-.54l1-.51 2.18-1.15 1.59-.83v.12a11.45 11.45 0 0 1 0 1.17v.6c0 .2 0 .62-.08.92a11.44 11.44 0 0 1-.24 1.3 11.17 11.17 0 0 1-.72 2.11.31.31 0 0 1-.05.1M85.4.1c-.12.26-.27.52-.4.78l-.83 1.56-1 1.89-.26.5L82 4l-2.7-2.67c-.07-.08-.17-.13-.22-.24a2.71 2.71 0 0 1 .49-.22 10.91 10.91 0 0 1 1.84-.58A13 13 0 0 1 83.05 0a14.42 14.42 0 0 1 1.61 0 3.06 3.06 0 0 1 .74.1M92 3.15l-2.15 1.08-2.08 1-.46.23c-.07 0-.11 0-.11-.06l-.11-.68L87 4c0-.22-.09-.43-.12-.65l-.11-.64-.11-.63-.12-.7c0-.2-.07-.4-.1-.61a2 2 0 0 1-.08-.54 5 5 0 0 1 .64.15 11.78 11.78 0 0 1 2.38.9 11.4 11.4 0 0 1 2 1.26 9.69 9.69 0 0 1 .69.61M95.59 9.5a2.52 2.52 0 0 1-.59-.08l-.66-.11-.63-.11-.65-.11-.64-.09-.61-.11-.64-.1-.74-.13c-.1 0-.11 0-.07-.13L91.59 6l1.09-2.21a2.62 2.62 0 0 1 .45.49 11 11 0 0 1 1.41 2.14 11.11 11.11 0 0 1 .84 2.16l.21.83v.07M73.29 6.88c.11 0 .16.15.24.23l.82.84 2.14 2.2.48.49v.12l-2.23 1.17-1.93 1c-.17.09-.33.18-.5.25a.65.65 0 0 1 0-.2 11 11 0 0 1 0-1.9 12.27 12.27 0 0 1 .41-2.41 12.59 12.59 0 0 1 .64-1.78M89.79 22.11a3.15 3.15 0 0 1-.09-.52c0-.28-.08-.55-.12-.83l-.11-.81-.11-.73-.12-.85c0-.24-.07-.49-.11-.73l-.11-.76c0-.06 0-.08.07-.07.3.07.61.1.91.14l.73.11.84.12.72.1.87.13c.24 0 .48.05.72.1a1.63 1.63 0 0 1 .43.08 5.9 5.9 0 0 1-.5.83 11.09 11.09 0 0 1-1.33 1.64 12 12 0 0 1-2.59 2h-.1M78.24 1.52a3.15 3.15 0 0 1 .09.52c0 .28.08.55.12.83l.11.82.11.74.12.83c0 .24.07.49.1.73l.12.76c0 .06 0 .08-.08.07a8.87 8.87 0 0 0-.9-.14l-.73-.11-.85-.12-.74-.11-.83-.11-.74-.11a1.49 1.49 0 0 1-.42-.12 5.9 5.9 0 0 1 .5-.83 11.63 11.63 0 0 1 1.33-1.64 12 12 0 0 1 2.59-2h.1M76 20.48l2.17-1.08 1-.51 1.48-.72c.12-.06.12-.05.13.07l.11.67.17 1 .12.64.15.91c0 .2.07.41.11.62l.12.7a4.48 4.48 0 0 1 .09.64 7.68 7.68 0 0 1-.83-.19 11.65 11.65 0 0 1-1.71-.62 11.45 11.45 0 0 1-2.7-1.69 2.24 2.24 0 0 1-.45-.42M72.43 14.13a3.31 3.31 0 0 1 .55.08l.64.1.67.12.61.11.67.11.7.12.59.1.74.13c.1 0 .11 0 .06.13l-1.22 2.49-1.09 2.2a3.07 3.07 0 0 1-.46-.49 12.19 12.19 0 0 1-1.33-2 11.72 11.72 0 0 1-.91-2.3 7 7 0 0 1-.22-.9M82.63 23.54l.43-.85 1-2 1-1.93a1.42 1.42 0 0 0 .13.12l1.88 1.84 1.57 1.53c.09.08.2.13.25.25a6.12 6.12 0 0 1-.83.36 11.2 11.2 0 0 1-1.5.44 11.9 11.9 0 0 1-1.33.22 10.27 10.27 0 0 1-2 .05 2.43 2.43 0 0 1-.66-.07"/>
  </g>
  <path d="M92 3.16a1.15 1.15 0 0 1 .33.29 1.22 1.22 0 0 1 .32.36L91.59 6l-1.23 2.51c0 .09 0 .11.07.13l.73.12.65.1.61.11.68.12.64.11.64.12.65.1a2.16 2.16 0 0 0 .56.08 4.86 4.86 0 0 1 .14.93l-1.58.83L92 12.41l-1 .51.52.54 2.16 2.22c.32.32.62.64.93 1 0 0 .07.09.13.11a2.37 2.37 0 0 1-.2.46 2.88 2.88 0 0 1-.22.38 2.14 2.14 0 0 0-.44-.08l-.71-.1-.87-.13-.72-.1-.85-.12L90 17c-.31 0-.61-.07-.91-.13-.08 0-.09 0-.08.07l.12.75c0 .25.07.49.11.73s.07.57.12.85.07.48.1.73l.12.81c0 .28.07.56.11.83a3 3 0 0 0 .09.52 4.16 4.16 0 0 1-.84.43c0-.11-.16-.17-.24-.25l-1.57-1.53-1.88-1.83-.14-.12-1 1.92c-.35.66-.7 1.31-1 2l-.43.84a3.43 3.43 0 0 1-.56-.07l-.37-.07a3.41 3.41 0 0 0-.1-.64l-.12-.7c0-.21-.07-.41-.1-.62l-.16-.9-.12-.65-.16-1-.11-.67c-.03-.23 0-.13-.13-.07l-1.48.72-1 .52L76 20.48a1.42 1.42 0 0 1-.36-.33 1.1 1.1 0 0 1-.29-.32l1.08-2.21 1.23-2.49c0-.09 0-.11-.07-.13l-.73-.12-.59-.11-.7-.11-.67-.12-.61-.1-.68-.12-.61-.11a3.31 3.31 0 0 0-.55-.08 7 7 0 0 1-.14-.8.57.57 0 0 1 0-.13 4.52 4.52 0 0 0 .49-.25l1.94-1L77 10.76c.06 0 .07-.06 0-.11l-.48-.5L74.34 8l-.81-.83c-.08-.08-.14-.19-.24-.24a5 5 0 0 1 .42-.83 2.14 2.14 0 0 0 .43.07l.73.11.83.11.75.11.85.13.73.1c.3 0 .6.07.9.14.08 0 .09 0 .08-.07l-.12-.8c0-.24-.07-.48-.1-.73l-.12-.82c0-.25-.08-.5-.11-.75l-.12-.82c0-.27-.06-.55-.11-.83a3.15 3.15 0 0 0-.09-.52 5 5 0 0 1 .83-.43c.05.11.15.16.23.24L82 4l.89.87.26-.51 1-1.88.82-1.57c.14-.26.29-.51.41-.78a3.31 3.31 0 0 1 .62.03l.38.08a2.5 2.5 0 0 0 .07.54c0 .21.07.41.11.62l.12.7c0 .2.07.41.11.62l.1.65L87 4l.13.73c.04.24.09.45.1.68s0 .09.11.06l.47-.23 2.07-1L92 3.16m-6.4 7.26c0-.2 0-.2-.13-.19a2.91 2.91 0 0 0-.58.09c-.12 0-.15 0-.2-.12s-.19-.37-.29-.56 0-.08-.1 0l-.5.51a.07.07 0 0 1-.11 0c-.21-.11-.41-.23-.63-.32 0 0-.08-.05-.1 0 0 .24-.09.48-.11.72 0 .06 0 .08-.09.08-.23 0-.45.06-.68.1s-.09.05-.06.12l.32.61v.12l-.5.5v.11l.49.25c.21.11.21.11.16.35a3 3 0 0 0-.07.52c0 .06 0 .08.07.07a5.21 5.21 0 0 0 .69-.1c.08 0 .1 0 .13.07a4.92 4.92 0 0 0 .3.61s0 .08.12 0 .34-.33.5-.51.06 0 .1 0a4.83 4.83 0 0 0 .64.33h.09c0-.24.09-.47.11-.71 0-.07 0-.08.09-.09.23 0 .45-.06.68-.1s.09 0 .06-.12l-.32-.61v-.12l.49-.48c0-.06.06-.09 0-.13s-.39-.22-.6-.3-.09 0-.07-.13l.1-.56" fill="#07002b"/>
  <path d="M85.6 10.42c0 .15-.06.36-.1.57s0 .1.07.12.4.2.6.3.07.07 0 .13l-.47.46a.08.08 0 0 0 0 .12l.32.61c0 .07 0 .1-.06.12s-.45.08-.68.1c-.06 0-.09 0-.09.09 0 .24-.07.48-.11.71s0 .05-.09 0a4.83 4.83 0 0 1-.64-.33h-.1c-.04 0-.34.34-.5.51s-.09 0-.12 0a4.92 4.92 0 0 1-.3-.61c0-.06 0-.09-.13-.07-.23 0-.45.09-.68.11-.07 0-.08 0-.08-.08a3.09 3.09 0 0 1 .07-.52c.05-.24.05-.24-.16-.34l-.49-.26c-.07 0-.06-.06 0-.11l.5-.5a.08.08 0 0 0 0-.12c-.12-.2-.22-.4-.32-.61s0-.1 0-.11.46-.09.69-.11c.06 0 .08 0 .09-.08a5.93 5.93 0 0 1 .1-.72c0-.08.06 0 .1 0a4.71 4.71 0 0 1 .63.33h.11l.5-.51c.06-.07.08 0 .11 0s.2.37.28.57.08.15.2.11a2.91 2.91 0 0 1 .58-.09c.13 0 .13 0 .13.19" fill="#ef2904"/>
</svg>
